<svg xmlns="http://www.w3.org/2000/svg" width="24" height="22" viewBox="0 0 24 22">
    <path fill="#4C84FF" fill-rule="nonzero" stroke="#4C84FF" stroke-width=".5" d="M22.989 5.487c0-.664-.53-1.205-1.18-1.205h-6.147V2.663c0-.917-.731-1.663-1.63-1.663H9.969c-.899 0-1.63.746-1.63 1.663v1.62H2.193c-.65 0-1.18.54-1.18 1.202L1 11.213c0 .186.104.356.267.437.25.124.508.238.767.352v7.794c0 .664.53 1.204 1.18 1.204h17.572c.65 0 1.18-.54 1.18-1.204v-7.91c.265-.126.526-.255.781-.392a.485.485 0 0 0 .253-.43l-.011-5.577zM9.287 2.663c0-.383.305-.695.68-.695h4.066c.369 0 .68.318.68.695v1.62H9.288v-1.62zm11.73 17.133a.24.24 0 0 1-.23.236H3.213a.237.237 0 0 1-.231-.236v-7.41c2.064.773 4.37 1.238 6.884 1.38v.671c0 .487.389.883.866.883h2.535a.875.875 0 0 0 .865-.883v-.678c2.547-.158 4.854-.649 6.885-1.462v7.499zm-10.201-5.444v-1.605h2.369v1.605h-2.37zm3.317-1.567v-.123a.875.875 0 0 0-.865-.883h-2.535a.875.875 0 0 0-.866.883v.134c-2.97-.174-5.632-.806-7.918-1.888l.011-5.421c0-.128.107-.237.232-.237H21.81c.126 0 .232.108.232.237l.01 5.283c-2.23 1.147-4.893 1.821-7.918 2.015z"/>
</svg>
