<svg xmlns="http://www.w3.org/2000/svg" width="17" height="20" viewBox="0 0 17 20">
    <path fill="#4C84FF" fill-rule="nonzero" d="M17 .652A.649.649 0 0 0 16.354 0H1.722a.649.649 0 0 0-.646.652v2.696H0v1.304h1.076v1.696H0v1.304h1.076v1.696H0v1.304h1.076v1.696H0v1.304h1.076v1.696H0v1.304h1.076v2.696c0 .36.289.652.646.652h14.632a.649.649 0 0 0 .646-.652V.652zm-14.633 16h1.098v-1.304H2.367v-1.696h1.098v-1.304H2.367v-1.696h1.098V9.348H2.367V7.652h1.098V6.348H2.367V4.652h1.098V3.348H2.367V1.304h3.594v17.392H2.367v-2.044zm13.342 2.044H7.252V1.304h8.457v17.392z"/>
</svg>
