<svg xmlns="http://www.w3.org/2000/svg" width="25" height="22" viewBox="0 0 25 22">
    <path fill="#6B739C" fill-rule="nonzero" stroke="#6B739C" stroke-width=".5" d="M20.595 10.187a.509.509 0 0 0-.237-.278l-7.474-8.732a.506.506 0 0 0-.768 0L1.122 14.023a.509.509 0 0 0 .055.716.505.505 0 0 0 .714-.054l2.307-2.696v6.47A2.54 2.54 0 0 0 6.731 21h11.361a2.54 2.54 0 0 0 2.533-2.54v-6.678l2.484 2.903a.505.505 0 0 0 .714.054.509.509 0 0 0 .055-.716l-3.283-3.836zm-5.68 9.797h-4.83v-3.82a2.42 2.42 0 0 1 2.415-2.42 2.42 2.42 0 0 1 2.414 2.42v3.82zm4.697-1.524c0 .84-.682 1.524-1.52 1.524h-2.165v-3.82a3.436 3.436 0 0 0-3.427-3.437 3.436 3.436 0 0 0-3.427 3.438v3.819H6.73c-.838 0-1.52-.684-1.52-1.524v-7.655L12.5 2.288l7.112 8.31v7.862z"/>
</svg>
