<svg xmlns="http://www.w3.org/2000/svg" width="24" height="22" viewBox="0 0 24 22">
    <g fill="#4C84FF" fill-rule="nonzero" stroke="#4C84FF" stroke-width=".5">
        <path d="M14.297 14.2a3.402 3.402 0 0 0 .843-2.235c0-1.91-1.603-3.465-3.573-3.465s-3.574 1.554-3.574 3.465c0 .827.305 1.616.843 2.234-2.188 1.007-3.605 3.138-3.605 5.548v.409l.408.104a23.99 23.99 0 0 0 5.928.74c2.008 0 4.003-.249 5.928-.74l.428-.111-.02-.468c-.026-2.383-1.437-4.485-3.606-5.482zm-7.955 5.137c.168-2.068 1.602-3.825 3.674-4.446l1.079-.324-.93-.62a2.385 2.385 0 0 1-1.077-1.982c0-1.325 1.112-2.404 2.479-2.404 1.366 0 2.478 1.079 2.478 2.404 0 .791-.402 1.532-1.076 1.981l-.93.621 1.079.324c2.072.621 3.505 2.379 3.673 4.447a23.1 23.1 0 0 1-10.45 0zM19.615 6c-1.866 0-3.384 1.495-3.384 3.333s1.518 3.334 3.384 3.334c1.867 0 3.385-1.496 3.385-3.334S21.482 6 19.615 6zm0 5.585c-1.26 0-2.286-1.01-2.286-2.252 0-1.241 1.026-2.251 2.286-2.251s2.287 1.01 2.287 2.251c0 1.242-1.026 2.252-2.287 2.252zM12 7.667c1.866 0 3.385-1.496 3.385-3.334S13.866 1 12 1c-1.866 0-3.385 1.495-3.385 3.333S10.134 7.667 12 7.667zm0-5.585c1.26 0 2.286 1.01 2.286 2.251 0 1.242-1.025 2.252-2.286 2.252-1.26 0-2.286-1.01-2.286-2.252 0-1.241 1.025-2.251 2.286-2.251zM7.77 9.333C7.77 7.495 6.25 6 4.384 6 2.518 6 1 7.495 1 9.333s1.518 3.334 3.385 3.334c1.866 0 3.384-1.496 3.384-3.334zm-3.385 2.252c-1.26 0-2.287-1.01-2.287-2.252 0-1.241 1.026-2.251 2.287-2.251 1.26 0 2.286 1.01 2.286 2.251 0 1.242-1.026 2.252-2.286 2.252z"/>
    </g>
</svg>
