<?xml version="1.0" encoding="UTF-8" standalone="no"?><!DOCTYPE svg PUBLIC "-//W3C//DTD SVG 1.1//EN" "http://www.w3.org/Graphics/SVG/1.1/DTD/svg11.dtd"><svg width="100%" height="100%" viewBox="0 0 36 12" version="1.1" xmlns="http://www.w3.org/2000/svg" xmlns:xlink="http://www.w3.org/1999/xlink" xml:space="preserve" xmlns:serif="http://www.serif.com/" style="fill-rule:evenodd;clip-rule:evenodd;stroke-linejoin:round;stroke-miterlimit:1.41421;"><path id="polygon9" d="M15.322,11.278l-2.864,0l1.791,-11.077l2.864,0l-1.791,11.077Z" style="fill:#210069;fill-rule:nonzero;"/><path id="path11" d="M25.705,0.472c-0.565,-0.225 -1.461,-0.472 -2.569,-0.472c-2.828,0 -4.82,1.508 -4.832,3.665c-0.024,1.591 1.426,2.475 2.51,3.005c1.108,0.542 1.485,0.896 1.485,1.379c-0.011,0.742 -0.896,1.084 -1.72,1.084c-1.144,0 -1.757,-0.176 -2.688,-0.589l-0.377,-0.177l-0.401,2.487c0.672,0.306 1.91,0.577 3.195,0.589c3.005,0 4.962,-1.485 4.985,-3.783c0.011,-1.261 -0.754,-2.227 -2.404,-3.017c-1.002,-0.506 -1.616,-0.848 -1.616,-1.367c0.012,-0.471 0.519,-0.954 1.65,-0.954c0.931,-0.024 1.615,0.2 2.134,0.424l0.259,0.118l0.389,-2.392Z" style="fill:#210069;fill-rule:nonzero;"/><path id="path13" d="M29.512,7.354c0.236,-0.636 1.144,-3.099 1.144,-3.099c-0.012,0.023 0.235,-0.649 0.377,-1.061l0.2,0.955c0,0 0.542,2.651 0.66,3.205c-0.448,0 -1.815,0 -2.381,0Zm3.536,-7.153l-2.216,0c-0.683,0 -1.202,0.2 -1.497,0.919l-4.254,10.158l3.005,0c0,0 0.495,-1.367 0.601,-1.662c0.33,0 3.254,0 3.678,0c0.082,0.389 0.342,1.662 0.342,1.662l2.652,0l-2.311,-11.077Z" style="fill:#210069;fill-rule:nonzero;"/><path id="path15" d="M10.065,0.201l-2.805,7.554l-0.306,-1.532c-0.519,-1.768 -2.145,-3.689 -3.96,-4.644l2.569,9.688l3.029,0l4.502,-11.066l-3.029,0Z" style="fill:#210069;fill-rule:nonzero;"/><path id="path17" d="M4.656,0.201l-4.609,0l-0.047,0.224c3.595,0.919 5.976,3.135 6.954,5.798l-1.002,-5.091c-0.165,-0.708 -0.672,-0.908 -1.296,-0.931Z" style="fill:#faa61a;fill-rule:nonzero;"/></svg>